<?xml version="1.0" encoding="utf-8"?>
<!-- Generator: Adobe Illustrator 18.0.0, SVG Export Plug-In . SVG Version: 6.00 Build 0)  -->
<!DOCTYPE svg PUBLIC "-//W3C//DTD SVG 1.1//EN" "http://www.w3.org/Graphics/SVG/1.1/DTD/svg11.dtd">
<svg version="1.1" id="_x30_1_x5F_1" xmlns="http://www.w3.org/2000/svg" xmlns:xlink="http://www.w3.org/1999/xlink" x="0px"
	 y="0px" width="250px" height="250px" viewBox="0 0 250 250" enable-background="new 0 0 250 250" xml:space="preserve">
<g>
	<path opacity="0.7" enable-background="new    " d="M80.8,205c-18.4-6.9-32.9-21.3-39.8-39.6c-1.9-4.9-7.4-7.4-12.5-5.6
		c-4.9,1.9-7.4,7.4-5.6,12.5c8.9,23.5,27.5,42.1,51.1,50.9c1.1,0.4,2.2,0.7,3.3,0.7c3.8,0,7.6-2.3,9.1-6.3
		C88.1,212.4,85.8,206.9,80.8,205z"/>
	<path opacity="0.7" enable-background="new    " d="M163.1,39.6c18.4,6.9,32.9,21.3,39.8,39.6c1.5,3.8,5.1,6.2,9.1,6.2
		c1.1,0,2.2-0.3,3.3-0.7c4.9-1.9,7.4-7.4,5.6-12.5c-8.8-23.6-27.4-42.1-51-50.9c-4.9-1.9-10.6,0.7-12.5,5.7
		C155.4,32.2,158.1,37.8,163.1,39.6z"/>
	<g>
		<path d="M95.8,73.4h-4.1v20.4h4.1c5.6,0,10.2-4.6,10.2-10.2S101.4,73.4,95.8,73.4z"/>
		<path d="M62.5,83.6c0,5.6,4.6,10.2,10.2,10.2h3.1V73.5h-3.1C67,73.4,62.5,78,62.5,83.6z"/>
		<path d="M118.9,16.1h-68c-19,0-34.1,15-34.1,33.5v68c0,18.5,14.9,33.5,34.1,33.5h68c17.8,0,32.8-15,32.8-33.5v-68
			C151.6,31.1,136.6,16.1,118.9,16.1z M95.8,109.9h-4.1v8.8c0,4.4-3.6,8-8,8s-8-3.6-8-8v-8.8h-3.1c-14.4,0-26.2-11.7-26.2-26.2
			c0-14.4,11.7-26.2,26.2-26.2h3.1v-9.3c0-4.4,3.6-8,8-8s8,3.6,8,8v9.3h4.1c14.4,0,26.2,11.7,26.2,26.2
			C122,98,110.3,109.9,95.8,109.9z"/>
	</g>
	<g>
		<path d="M199.7,98.9h-38.6v21.9c0,22-17.8,39.9-39.9,39.9h-23v39.6c0,18.5,15,33.5,33.5,33.5h68c18.5,0,33.5-15,33.5-33.5v-68
			C233.2,113.9,218.2,98.9,199.7,98.9z M200.9,204.9c-3.9,1.6-8.4-0.2-10.1-4.2l-3.7-9h-26.5l-4,9.8c-1.2,3-4.1,4.8-7.1,4.8
			c-1,0-2-0.2-2.9-0.6c-3.9-1.6-5.8-6.1-4.2-10l24.3-59.4c1.2-2.9,4-4.8,7.1-4.8l0,0c3.1,0,5.9,1.9,7.1,4.8l24.3,58.6
			C206.6,198.7,204.7,203.2,200.9,204.9z"/>
		<polygon points="166.9,176.2 180.6,176.2 173.8,159.4 		"/>
	</g>
</g>
</svg>
