<?xml version="1.0" encoding="utf-8"?>
<!-- Generator: Adobe Illustrator 18.0.0, SVG Export Plug-In . SVG Version: 6.00 Build 0)  -->
<!DOCTYPE svg PUBLIC "-//W3C//DTD SVG 1.1//EN" "http://www.w3.org/Graphics/SVG/1.1/DTD/svg11.dtd">
<svg version="1.1" id="_x30_1_x5F_1" xmlns="http://www.w3.org/2000/svg" xmlns:xlink="http://www.w3.org/1999/xlink" x="0px"
	 y="0px" width="250px" height="250px" viewBox="0 0 250 250" enable-background="new 0 0 250 250" xml:space="preserve">
<g>
	<path opacity="0.7" enable-background="new    " d="M238.9,133.1c-5.3,45.3-36.8,75.8-98.4,83c11.6,5.3,25.8,7.9,41.3,7.9
		c0.8,0,1.7,0,2.6,0l18.1,15.2c3.1,2.6,7.8,1.1,8.8-2.8l5-18c23.7-9.1,33.3-27.6,33.3-46.3C249.9,159.1,247.1,144.8,238.9,133.1z"/>
	<path d="M147.9,73.3h-34.8c2.5,2.6,4.9,5.9,7.8,8.5c2.8,2.5,6,4.8,9.4,7c3.8-2.3,7.2-4.7,10-7.2C143.1,78.9,145.6,75.9,147.9,73.3z
		"/>
	<path d="M228.8,118.3c0-49.1-23.9-100.6-114.8-100.6C21.8,17.7,0.4,71.3,0.4,120.4c0,34.8,22,62.7,55.7,77l9.5,33.1
		c1.5,5.6,8.5,7.7,13,3.8l29.3-26.2c1,0,2,0,3.1,0C183.5,208.2,228.8,168.1,228.8,118.3z M75.4,56.7c1.3,1.3,2.6,2.9,4.2,4.6
		c1.6,1.7,3.2,3.5,4.7,5.5c1.6,2,3.2,3.8,4.6,5.8c1.4,1.9,2.6,3.5,3.6,5.1l-9.4,9c-0.9-1.4-2.1-3.3-3.5-5.2c-1.4-2-3-4.1-4.6-6
		c-1.6-2.1-3.2-4.1-4.7-6c-1.6-2-3-3.5-4.2-4.7L75.4,56.7z M166.9,150.5h-31.4v18.3H125v-18.3H97.5v-6c-1.3,0.7-1.7,1.6-2.8,2.9
		c-1.2,1.2-2.3,2.5-3.6,3.8s-2.6,2.6-3.8,3.9c-1.3,1.3-2.3,2.5-3.4,3.4c-0.7,0.9-1.9,2-3,3.3s-2.1,2.5-2.9,3.6l-8.1-8.5
		c1.3-1.4,2-2.8,2.3-4.1c0.4-1.3,0.4-2.9,0.4-4.7v-40.8h-13V94.1h24.8v48.3c0-0.6,1.2-1.2,1.9-2c0.7-0.7,1.4-1.6,2.1-2.3
		s1.4-1.6,2.1-2.3s1.3-1.4,1.7-2l5.4,8.9V140h27.5v-10.5H98.8V119h26.1v-11.2l10.5,0.6v10.7h26.1v10.5h-26.1v10.5h31.4v10.4H166.9z
		 M167.3,113.6c-7.8-2-14.8-3.9-20.8-5.9s-11.3-4.2-16.1-6.5c-4.6,2.3-9.6,4.6-15.2,6.7c-5.7,2.1-12,4.2-19.3,6.3L91,103.6
		c5.7-1.4,10.7-2.9,15.3-4.5c4.6-1.6,9-3.2,12.9-4.8c-3.2-2.5-6.1-5.1-9-8.1s-5.8-6.3-8.7-10l4.5-2.8h-9.9V61.5h65.5V73
		c-2.6,4.2-5.5,8-8.5,11.5c-3.2,3.5-6.8,6.7-11.2,9.7c4.1,1.7,8.5,3.2,13.5,4.5c4.8,1.3,10.3,2.6,16.5,3.9L167.3,113.6z"/>
</g>
</svg>
