<?xml version="1.0" encoding="utf-8"?>
<!-- Generator: Adobe Illustrator 18.0.0, SVG Export Plug-In . SVG Version: 6.00 Build 0)  -->
<!DOCTYPE svg PUBLIC "-//W3C//DTD SVG 1.1//EN" "http://www.w3.org/Graphics/SVG/1.1/DTD/svg11.dtd">
<svg version="1.1" id="_x30_1_x5F_1" xmlns="http://www.w3.org/2000/svg" xmlns:xlink="http://www.w3.org/1999/xlink" x="0px"
	 y="0px" width="250px" height="250px" viewBox="0 0 250 250" enable-background="new 0 0 250 250" xml:space="preserve">
<path opacity="0.7" d="M134.5,146.5H51.6c-5.4,0-9.8-4.4-9.8-9.8v-23.4c0-5.4,4.4-9.8,9.8-9.8h82.9c5.4,0,9.8,4.4,9.8,9.8v23.4
	C144.3,142.1,140,146.5,134.5,146.5z"/>
<g>
	<path fill="none" stroke="#000000" stroke-width="25" stroke-linecap="round" stroke-linejoin="round" stroke-miterlimit="10" d="
		M133.3,67H36.1c-12.2,0-22,9.8-22,22v72c0,12.2,9.8,22,22,22h97.2"/>
	<path fill="none" stroke="#000000" stroke-width="25" stroke-linecap="round" stroke-linejoin="round" stroke-miterlimit="10" d="
		M213.9,183c12.2,0,22-9.8,22-22V89c0-12.2-9.8-22-22-22"/>
</g>
<g>
	
		<line fill="none" stroke="#000000" stroke-width="25" stroke-linecap="round" stroke-linejoin="round" stroke-miterlimit="10" x1="174.1" y1="25.5" x2="174.1" y2="224.5"/>
	<g>
		
			<line fill="none" stroke="#000000" stroke-width="25" stroke-linecap="round" stroke-linejoin="round" stroke-miterlimit="10" x1="159.7" y1="233.4" x2="188.6" y2="233.4"/>
		
			<line fill="none" stroke="#000000" stroke-width="25" stroke-linecap="round" stroke-linejoin="round" stroke-miterlimit="10" x1="159.7" y1="16.6" x2="188.6" y2="16.6"/>
	</g>
</g>
</svg>
