<?xml version="1.0" encoding="utf-8"?>
<!-- Generator: Adobe Illustrator 18.0.0, SVG Export Plug-In . SVG Version: 6.00 Build 0)  -->
<!DOCTYPE svg PUBLIC "-//W3C//DTD SVG 1.1//EN" "http://www.w3.org/Graphics/SVG/1.1/DTD/svg11.dtd">
<svg version="1.1" id="_x30_1_x5F_1" xmlns="http://www.w3.org/2000/svg" xmlns:xlink="http://www.w3.org/1999/xlink" x="0px"
	 y="0px" width="250px" height="250px" viewBox="0 0 250 250" enable-background="new 0 0 250 250" xml:space="preserve">
<path opacity="0.7" enable-background="new    " d="M224.5,217.3h-199c-5.4,0-9.8-4.4-9.8-9.8v-23.4c0-5.4,4.4-9.8,9.8-9.8h199
	c5.4,0,9.8,4.4,9.8,9.8v23.4C234.3,212.9,230,217.3,224.5,217.3z"/>
<path enable-background="new    " d="M224.5,169.4h-199c-5.4,0-9.8-4.4-9.8-9.8v-18.4c0-5.4,4.4-9.8,9.8-9.8h199
	c5.4,0,9.8,4.4,9.8,9.8v18.4C234.3,165,230,169.4,224.5,169.4z"/>
<path enable-background="new    " d="M201.5,126.9H48.5c-5.4,0-9.8-4.4-9.8-9.8V98.7c0-5.4,4.4-9.8,9.8-9.8h153.1
	c5.4,0,9.8,4.4,9.8,9.8v18.4C211.3,122.5,207,126.9,201.5,126.9z"/>
<g>
	<path d="M135.9,26h-17c-11.5,0-22.5,4.2-31.1,11.8l-4,3.6c-7.5,6.7-7.5,18.4,0,25.1l4,3.6c8.6,7.6,19.6,11.8,31.1,11.8h0
		c4.4,0,8,3.6,8,8v7.4c0,5.5-2.2,10.9-6.1,14.8l-20.5,20.5h54.8l2.5-2.5c7.5-7.5,11.8-17.7,11.8-28.4V59.4
		C169.3,41,154.3,26,135.9,26z M126.9,55.9c-5.5,0-9.9-4.5-9.9-9.9c0-5.5,4.5-9.9,9.9-9.9c5.5,0,9.9,4.5,9.9,9.9
		C136.8,51.4,132.4,55.9,126.9,55.9z"/>
	<path enable-background="new    " d="M90.7,58.7H66.3c-2.2,0-4-1.8-4-4v0c0-2.2,1.8-4,4-4h24.4c2.2,0,4,1.8,4,4v0
		C94.7,56.9,92.9,58.7,90.7,58.7z"/>
</g>
</svg>
