<?xml version="1.0" encoding="utf-8"?>
<!-- Generator: Adobe Illustrator 18.0.0, SVG Export Plug-In . SVG Version: 6.00 Build 0)  -->
<!DOCTYPE svg PUBLIC "-//W3C//DTD SVG 1.1//EN" "http://www.w3.org/Graphics/SVG/1.1/DTD/svg11.dtd">
<svg version="1.1" id="_x30_1_x5F_1" xmlns="http://www.w3.org/2000/svg" xmlns:xlink="http://www.w3.org/1999/xlink" x="0px"
	 y="0px" width="250px" height="250px" viewBox="0 0 250 250" enable-background="new 0 0 250 250" xml:space="preserve">
<path opacity="0.7" enable-background="new    " d="M224.5,217.3h-199c-5.4,0-9.8-4.4-9.8-9.8v-23.4c0-5.4,4.4-9.8,9.8-9.8h199
	c5.4,0,9.8,4.4,9.8,9.8v23.4C234.3,212.9,230,217.3,224.5,217.3z"/>
<path enable-background="new    " d="M151.9,42.6v108c0,5.4-4.4,9.8-9.8,9.8h-34.1c-5.4,0-9.8-4.4-9.8-9.8v-108
	c0-5.4,4.4-9.8,9.8-9.8h34.1C147.5,32.8,151.9,37.1,151.9,42.6z"/>
<path enable-background="new    " d="M69.4,42.6v108c0,5.4-4.4,9.8-9.8,9.8H25.5c-5.4,0-9.8-4.4-9.8-9.8v-108c0-5.4,4.4-9.8,9.8-9.8
	h34.1C65,32.8,69.4,37.1,69.4,42.6z"/>
<path enable-background="new    " d="M234.3,42.6v108c0,5.4-4.4,9.8-9.8,9.8h-34.1c-5.4,0-9.8-4.4-9.8-9.8v-108
	c0-5.4,4.4-9.8,9.8-9.8h34.1C229.9,32.8,234.3,37.1,234.3,42.6z"/>
</svg>
